<svg width="27" height="27" viewBox="0 0 27 27" fill="none" xmlns="http://www.w3.org/2000/svg">
<g filter="url(#filter0_d_11_1078)">
<path d="M19.8679 16.8113H17.1509C16.9634 16.8113 16.8113 16.9634 16.8113 17.1509V19.8679C16.8113 20.0555 16.9634 20.2075 17.1509 20.2075H19.8679C20.0555 20.2075 20.2075 20.0555 20.2075 19.8679V17.1509C20.2075 16.9634 20.0555 16.8113 19.8679 16.8113Z" fill="#FF9A71"/>
<path d="M16.4714 14.0943H14.4336C14.2461 14.0943 14.094 14.2463 14.094 14.4339V16.4716C14.094 16.6592 14.2461 16.8112 14.4336 16.8112H16.4714C16.6589 16.8112 16.811 16.6592 16.811 16.4716V14.4339C16.811 14.2463 16.6589 14.0943 16.4714 14.0943Z" fill="#FF9A71"/>
<path d="M22.5846 20.2075H20.5468C20.3593 20.2075 20.2072 20.3595 20.2072 20.5471V22.5848C20.2072 22.7724 20.3593 22.9244 20.5468 22.9244H22.5846C22.7721 22.9244 22.9242 22.7724 22.9242 22.5848V20.5471C22.9242 20.3595 22.7721 20.2075 22.5846 20.2075Z" fill="#FF9A71"/>
<path d="M22.5849 14.0943H21.2264C21.0388 14.0943 20.8868 14.2463 20.8868 14.4339V15.7924C20.8868 15.9799 21.0388 16.132 21.2264 16.132H22.5849C22.7725 16.132 22.9245 15.9799 22.9245 15.7924V14.4339C22.9245 14.2463 22.7725 14.0943 22.5849 14.0943Z" fill="#FF9A71"/>
<path d="M15.7921 20.8868H14.4336C14.2461 20.8868 14.094 21.0388 14.094 21.2264V22.5849C14.094 22.7725 14.2461 22.9245 14.4336 22.9245H15.7921C15.9797 22.9245 16.1317 22.7725 16.1317 22.5849V21.2264C16.1317 21.0388 15.9797 20.8868 15.7921 20.8868Z" fill="#FF9A71"/>
<path d="M19.8679 6.62252H17.1509C16.9634 6.62252 16.8113 6.77457 16.8113 6.96214V9.67912C16.8113 9.86669 16.9634 10.0187 17.1509 10.0187H19.8679C20.0555 10.0187 20.2075 9.86669 20.2075 9.67912V6.96214C20.2075 6.77457 20.0555 6.62252 19.8679 6.62252Z" fill="#FF9A71"/>
<path d="M21.566 4.58491H15.4528C15.0777 4.58491 14.7736 4.88901 14.7736 5.26415V11.3774C14.7736 11.7525 15.0777 12.0566 15.4528 12.0566H21.566C21.9412 12.0566 22.2453 11.7525 22.2453 11.3774V5.26415C22.2453 4.88901 21.9412 4.58491 21.566 4.58491Z" stroke="#FF9A71" stroke-linecap="round" stroke-linejoin="round"/>
<path d="M9.67925 6.62264H6.96226C6.7747 6.62264 6.62264 6.7747 6.62264 6.96226V9.67925C6.62264 9.86681 6.7747 10.0189 6.96226 10.0189H9.67925C9.86681 10.0189 10.0189 9.86681 10.0189 9.67925V6.96226C10.0189 6.7747 9.86681 6.62264 9.67925 6.62264Z" fill="#FF9A71"/>
<path d="M11.3774 4.58491H5.26415C4.88901 4.58491 4.58491 4.88901 4.58491 5.26415V11.3774C4.58491 11.7525 4.88901 12.0566 5.26415 12.0566H11.3774C11.7525 12.0566 12.0566 11.7525 12.0566 11.3774V5.26415C12.0566 4.88901 11.7525 4.58491 11.3774 4.58491Z" stroke="#FF9A71" stroke-linecap="round" stroke-linejoin="round"/>
<path d="M9.67925 16.8113H6.96226C6.7747 16.8113 6.62264 16.9634 6.62264 17.1509V19.8679C6.62264 20.0555 6.7747 20.2075 6.96226 20.2075H9.67925C9.86681 20.2075 10.0189 20.0555 10.0189 19.8679V17.1509C10.0189 16.9634 9.86681 16.8113 9.67925 16.8113Z" fill="#FF9A71"/>
<path d="M11.3774 14.7737H5.26415C4.88901 14.7737 4.58491 15.0778 4.58491 15.453V21.5662C4.58491 21.9413 4.88901 22.2454 5.26415 22.2454H11.3774C11.7525 22.2454 12.0566 21.9413 12.0566 21.5662V15.453C12.0566 15.0778 11.7525 14.7737 11.3774 14.7737Z" stroke="#FF9A71" stroke-linecap="round" stroke-linejoin="round"/>
</g>
<defs>
<filter id="filter0_d_11_1078" x="0" y="0" width="27" height="27" filterUnits="userSpaceOnUse" color-interpolation-filters="sRGB">
<feFlood flood-opacity="0" result="BackgroundImageFix"/>
<feColorMatrix in="SourceAlpha" type="matrix" values="0 0 0 0 0 0 0 0 0 0 0 0 0 0 0 0 0 0 127 0" result="hardAlpha"/>
<feOffset/>
<feGaussianBlur stdDeviation="2"/>
<feComposite in2="hardAlpha" operator="out"/>
<feColorMatrix type="matrix" values="0 0 0 0 0 0 0 0 0 0 0 0 0 0 0 0 0 0 0.25 0"/>
<feBlend mode="normal" in2="BackgroundImageFix" result="effect1_dropShadow_11_1078"/>
<feBlend mode="normal" in="SourceGraphic" in2="effect1_dropShadow_11_1078" result="shape"/>
</filter>
</defs>
</svg>
