<svg width="16" height="14" viewBox="0 0 16 14" fill="none" xmlns="http://www.w3.org/2000/svg">
<path d="M15.9999 1.61146C15.3998 1.88854 14.7647 2.07109 14.115 2.15333C14.7978 1.72847 15.3114 1.0535 15.5593 0.255005C14.9137 0.65613 14.2085 0.937578 13.474 1.08729C13.1647 0.742879 12.7927 0.468887 12.3806 0.281973C11.9685 0.0950589 11.525 -0.000873843 11.077 5.99759e-06C9.26297 5.99759e-06 7.79498 1.53708 7.79498 3.43187C7.79369 3.69543 7.82211 3.9582 7.87964 4.21458C6.57888 4.14979 5.30516 3.79722 4.13998 3.17944C2.9748 2.56166 1.94382 1.69227 1.113 0.626879C0.821522 1.14896 0.667375 1.74464 0.666665 2.35167C0.666665 3.54166 1.251 4.59353 2.13333 5.20978C1.61057 5.1966 1.09853 5.04959 0.640665 4.78124V4.82374C0.640665 6.48832 1.77399 7.87311 3.27399 8.18831C2.99192 8.26821 2.70125 8.30869 2.40933 8.30873C2.20219 8.30911 1.99552 8.28776 1.79233 8.24498C2.20933 9.60852 3.42299 10.6002 4.86065 10.6285C3.69245 11.5851 2.2582 12.1021 0.783331 12.0983C0.521538 12.0979 0.259988 12.0813 0 12.0487C1.50039 13.0667 3.24447 13.6051 5.02465 13.6C11.07 13.6 14.3726 8.36894 14.3726 3.83208C14.3726 3.68333 14.369 3.53458 14.3623 3.38937C15.0033 2.90489 15.5579 2.30283 15.9999 1.61146Z" fill="#F5F5F5"/>
</svg>
